<svg width="333" height="234" viewBox="0 0 333 234" fill="none" xmlns="http://www.w3.org/2000/svg">
<mask id="mask0" mask-type="alpha" maskUnits="userSpaceOnUse" x="0" y="63" width="333" height="171">
<path d="M0 233.5V63.5H333V233.5H0Z" fill="#202020"/>
</mask>
<g mask="url(#mask0)">
<path d="M53.104 95.08C58.864 86.248 66.064 79.336 74.704 74.344C83.344 69.16 92.944 66.568 103.504 66.568V118.696H89.968C77.68 118.696 68.464 121.384 62.32 126.76C56.176 131.944 53.104 141.16 53.104 154.408V229H3.856V68.296H53.104V95.08ZM151.812 51.592C143.172 51.592 136.068 49.096 130.5 44.104C125.124 38.92 122.436 32.584 122.436 25.096C122.436 17.416 125.124 11.08 130.5 6.08799C136.068 0.903984 143.172 -1.68802 151.812 -1.68802C160.26 -1.68802 167.172 0.903984 172.548 6.08799C178.116 11.08 180.9 17.416 180.9 25.096C180.9 32.584 178.116 38.92 172.548 44.104C167.172 49.096 160.26 51.592 151.812 51.592ZM176.292 68.296V229H127.044V68.296H176.292ZM258.061 188.392H327.757V229H203.053V189.832L269.869 108.904H203.629V68.296H326.317V107.464L258.061 188.392Z" fill="#202020"/>
</g>
<rect x="127" width="200" height="41" fill="#FF5851"/>
</svg>
